<?xml version="1.0" encoding="UTF-8"?>
<svg width="1900px" height="1900px" viewBox="0 0 1900 1900" xmlns="http://www.w3.org/2000/svg" xmlns:xlink="http://www.w3.org/1999/xlink" version="1.1">
 <!-- Generated by Pixelmator Pro 2.0.8 -->
 <path id="Ellipse" d="M1900 950 C1900 425.329 1474.671 0 950 0 425.329 0 0 425.329 0 950 0 1474.671 425.329 1900 950 1900 1474.671 1900 1900 1474.671 1900 950 Z" fill="#0f6828" fill-opacity="1" stroke="none"/>
 <g id="New-Group">
  <g id="New-Group-1">
   <path id="Path" d="M808 237 L1093 237 1093 0 808 0 Z" fill="#ffffff" fill-opacity="1" stroke="none"/>
   <path id="Path-copy" d="M808 1900 L1093 1900 1093 1663 808 1663 Z" fill="#ffffff" fill-opacity="1" stroke="none"/>
  </g>
  <g id="New-Group-copy-1">
   <path id="Path-1" d="M261.92 717.262 L404.42 470.445 199.172 351.945 56.672 598.762 Z" fill="#ffffff" fill-opacity="1" stroke="none"/>
   <path id="Path-copy-1" d="M1702.121 1548.762 L1844.621 1301.945 1639.373 1183.445 1496.873 1430.262 Z" fill="#ffffff" fill-opacity="1" stroke="none"/>
  </g>
  <g id="New-Group-copy-2">
   <path id="Path-2" d="M404.644 1430.392 L262.144 1183.574 56.896 1302.074 199.396 1548.892 Z" fill="#ffffff" fill-opacity="1" stroke="none"/>
   <path id="Path-copy-2" d="M1844.845 598.892 L1702.345 352.074 1497.097 470.574 1639.597 717.392 Z" fill="#ffffff" fill-opacity="1" stroke="none"/>
  </g>
 </g>
 <path id="Ellipse-1" d="M1580 946 C1580 598.613 1298.387 317 951 317 603.613 317 322 598.613 322 946 322 1293.387 603.613 1575 951 1575 1298.387 1575 1580 1293.387 1580 946 Z" fill="#ffffff" fill-opacity="1" stroke="none"/>
 <path id="Ellipse-2" d="M1531.5 947 C1531.5 625.846 1271.154 365.5 950 365.5 628.846 365.5 368.5 625.846 368.5 947 368.5 1268.154 628.846 1528.5 950 1528.5 1271.154 1528.5 1531.5 1268.154 1531.5 947 Z" fill="#0f6828" fill-opacity="1" stroke="none"/>
</svg>
